<svg width="89" height="56" fill="none" xmlns="http://www.w3.org/2000/svg"><path d="M84.55 16.41c.633.862 1.14 1.552 1.646 2.328 3.294 4.915 3.674 11.123 1.204 16.814-1.204 2.76-2.85 4.915-4.687 6.812-4.244 4.312-8.994 7.157-14.06 8.968-16.088 5.777-32.302 6.036-48.579 1.638-4.307-1.12-8.487-2.931-12.414-5.863-2.153-1.638-4.117-3.535-5.573-6.295-2.47-4.483-2.724-9.226-.887-14.227 1.203-3.363 3.103-5.95 5.257-8.278 3.8-4.139 7.98-7.243 12.477-9.658C35.211-.404 51.995-2.129 69.159 2.441c4.687 1.207 9.12 3.363 13.174 6.984.823.776 1.646 1.553 2.407 2.501 1.52 1.81 1.456 2.415-.19 4.484ZM69.285 7.01v-.345c-1.014-.258-1.964-.603-2.977-.862C52.819 2.7 39.518 3.648 26.408 9.081c-5.7 2.328-11.21 5.518-16.088 10.26-1.836 1.811-3.673 3.795-5.13 6.123-3.357 5.432-2.977 10.95 1.14 15.348 1.774 1.897 3.864 3.363 5.954 4.657 4.497 2.673 9.247 3.966 14.06 4.914 11.527 2.156 23.054 1.984 34.518-.69 6.144-1.465 12.097-3.88 17.544-8.277 2.217-1.81 4.307-3.88 5.827-6.726 2.596-4.742 2.343-9.744-.76-13.882-.95-1.294-2.027-2.415-3.167-3.45-5.32-4.742-11.21-6.725-17.48-6.553-1.33 0-2.724.173-4.054.259-.823 0-1.52-.431-1.583-1.639-.064-1.034.506-1.724 1.266-1.81 1.33-.259 2.66-.69 3.99-.776 2.28-.087 4.56.086 6.84.172Z" fill="#F9FAFB"/></svg>