<svg viewBox="0 0 24 24" xmlns="http://www.w3.org/2000/svg" style="fill-rule:evenodd;clip-rule:evenodd;stroke-linejoin:round;stroke-miterlimit:2"><path d="M8.027 19.325c0 .099-.111.178-.251.178-.16.015-.271-.064-.271-.178 0-.1.111-.179.251-.179.146-.015.271.065.271.179Zm-1.504-.224c-.034.1.062.214.208.244.125.049.271 0 .3-.1.029-.099-.063-.213-.208-.258-.126-.034-.267.015-.3.114Zm2.138-.084c-.14.035-.237.129-.222.243.014.1.14.164.285.129.141-.034.237-.129.223-.228-.015-.094-.145-.159-.286-.144ZM11.845 0C5.134 0 0 5.226 0 12.109c0 5.504 3.377 10.213 8.202 11.871.619.114.837-.278.837-.601 0-.307-.015-2.005-.015-3.047 0 0-3.387.745-4.098-1.479 0 0-.552-1.444-1.345-1.816 0 0-1.108-.779.077-.764 0 0 1.205.099 1.868 1.28 1.059 1.916 2.835 1.365 3.527 1.037.112-.794.426-1.345.774-1.672-2.704-.308-5.433-.71-5.433-5.484 0-1.365.367-2.05 1.141-2.923-.125-.323-.537-1.653.126-3.37C6.673 4.819 9 6.481 9 6.481a11.1 11.1 0 0 1 3.039-.422c1.03 0 2.071.144 3.038.422 0 0 2.328-1.667 3.339-1.34.663 1.722.252 3.047.126 3.37.774.878 1.248 1.563 1.248 2.923 0 4.789-2.85 5.171-5.554 5.484.445.392.822 1.136.822 2.303 0 1.672-.014 3.741-.014 4.148 0 .323.222.715.837.601C20.719 22.322 24 17.613 24 12.109 24 5.226 18.556 0 11.845 0ZM4.703 17.116c-.063.05-.048.164.034.258.078.08.189.115.252.05.063-.05.048-.164-.034-.258-.078-.079-.189-.114-.252-.05Zm-.522-.402c-.034.065.014.144.111.194.077.05.174.035.208-.035.034-.064-.015-.144-.111-.193-.097-.03-.174-.015-.208.034Zm1.567 1.767c-.077.065-.048.214.063.308.112.114.252.129.315.049.063-.064.034-.213-.063-.307-.107-.114-.252-.129-.315-.05Zm-.551-.729c-.078.049-.078.178 0 .292.077.115.208.164.271.115.077-.065.077-.194 0-.308-.068-.114-.194-.164-.271-.099Z" style="fill:#111827;fill-rule:nonzero"/></svg>