<svg xmlns="http://www.w3.org/2000/svg" width="933.333" height="933.333" viewBox="0 0 700 700"><path d="M129.8 50.6c-34 6.1-63 30.7-74.8 63.2-6.4 17.6-6.1 4.4-5.8 240.2l.3 214.5 2.2 7.7c7.2 25.2 21.7 45.6 41.8 58.6 4.4 2.8 8.5 5.6 9.1 6.1.7.5 1.5.7 2 .3.4-.4.4-.1 0 .6-1.2 2.1 9.6 17.2 18.6 25.8 13.9 13.4 29.6 21.7 48.3 25.5 8.6 1.8 18.2 1.9 222 1.9 204.1 0 213.4-.1 222-1.9 20.2-4.2 36.8-13.5 51.5-28.7 13.9-14.5 22.2-30 26.1-48.9 1.8-8.6 1.9-18.2 1.9-222s-.1-213.4-1.9-222c-3.8-18.7-12.1-34.4-25.5-48.3-8.6-9-23.7-19.8-25.8-18.6-.7.4-1 .4-.6 0 .4-.5.2-1.3-.3-2-.5-.6-3.3-4.7-6.1-9.1-13-20.1-33.4-34.6-58.6-41.8l-7.7-2.2-215.5-.2c-180.4-.1-216.7.1-223.2 1.3M561 72.1c17.9 2.2 32.6 9.3 45.1 21.8s19.6 27.2 21.8 45.1c1.5 11.8 1.5 410.2 0 422-2.2 17.9-9.3 32.6-21.8 45.1s-27.2 19.6-45.1 21.8c-11.8 1.5-410.2 1.5-422 0-17.9-2.2-32.6-9.3-45.1-21.8S74.3 578.9 72.1 561c-1.5-11.8-1.5-410.2 0-422 2.2-17.9 9.3-32.6 21.8-45.1 12.1-12.1 27.4-19.7 43.8-21.8 10.2-1.3 412.8-1.4 423.3 0m69 542.3c0 .2-.8 1-1.7 1.7-1.6 1.3-1.7 1.2-.4-.4s2.1-2.1 2.1-1.3m-13 13c0 .2-.8 1-1.7 1.7-1.6 1.3-1.7 1.2-.4-.4s2.1-2.1 2.1-1.3"/><path d="M200 348v199h96l.2-72.8.3-72.7h62.8l33.6 72.7 33.6 72.8h54.8c30.1 0 54.7-.2 54.7-.5s-18.9-38.4-42.1-84.6c-23.1-46.3-41.9-84.2-41.7-84.3s2.6-1.5 5.3-3.1c29.8-16.7 51.5-47.5 57.6-81.5 1.7-9.5 1.7-33.2 0-43-8.8-50.3-47.1-86.1-103.7-97-18.5-3.5-31.5-4-122.6-4H200zm161-144c31.3 2.8 50.4 18.3 57.1 46.6 2.3 9.6 2.7 28.4 1 39.4-4.8 30.2-22.4 49.8-49.4 55.4-6 1.3-14.4 1.6-40.7 1.6h-33v-71.3c0-39.3.3-71.7.7-72 1-1.1 51.5-.8 64.3.3"/></svg>