<?xml version="1.0" standalone="no"?>
<!DOCTYPE svg PUBLIC "-//W3C//DTD SVG 20010904//EN"
 "http://www.w3.org/TR/2001/REC-SVG-20010904/DTD/svg10.dtd">
<svg version="1.0" xmlns="http://www.w3.org/2000/svg"
 width="700.000000pt" height="700.000000pt" viewBox="0 0 700.000000 700.000000"
 preserveAspectRatio="xMidYMid meet">
<metadata>
Created by potrace 1.14, written by Peter Selinger 2001-2017
</metadata>
<g transform="translate(0.000000,700.000000) scale(0.100000,-0.100000)"
fill="#000000" stroke="none">
<path d="M1298 6494 c-340 -61 -630 -307 -748 -632 -64 -176 -61 -44 -58
-2402 l3 -2145 22 -77 c72 -252 217 -456 418 -586 44 -28 85 -56 91 -61 7 -5
15 -7 20 -3 4 4 4 1 0 -6 -12 -21 96 -172 186 -258 139 -134 296 -217 483
-255 86 -18 182 -19 2220 -19 2041 0 2134 1 2220 19 202 42 368 135 515 287
139 145 222 300 261 489 18 86 19 182 19 2220 0 2038 -1 2134 -19 2220 -38
187 -121 344 -255 483 -86 90 -237 198 -258 186 -7 -4 -10 -4 -6 0 4 5 2 13
-3 20 -5 6 -33 47 -61 91 -130 201 -334 346 -586 418 l-77 22 -2155 2 c-1804
1 -2167 -1 -2232 -13z m4312 -215 c179 -22 326 -93 451 -218 125 -125 196
-272 218 -451 15 -118 15 -4102 0 -4220 -22 -179 -93 -326 -218 -451 -125
-125 -272 -196 -451 -218 -118 -15 -4102 -15 -4220 0 -179 22 -326 93 -451
218 -125 125 -196 272 -218 451 -15 118 -15 4102 0 4220 22 179 93 326 218
451 121 121 274 197 438 218 102 13 4128 14 4233 0z m690 -5423 c0 -2 -8 -10
-17 -17 -16 -13 -17 -12 -4 4 13 16 21 21 21 13z m-130 -130 c0 -2 -8 -10 -17
-17 -16 -13 -17 -12 -4 4 13 16 21 21 21 13z"/>
<path d="M2000 3520 l0 -1990 480 0 480 0 2 728 3 727 314 0 314 0 336 -727
336 -728 548 0 c301 0 547 2 547 5 0 3 -189 384 -421 846 -231 463 -419 842
-417 843 2 1 26 15 53 31 298 167 515 475 576 815 17 95 17 332 0 430 -88 503
-471 861 -1037 970 -185 35 -315 40 -1226 40 l-888 0 0 -1990z m1610 1440
c313 -28 504 -183 571 -466 23 -96 27 -284 10 -394 -48 -302 -224 -498 -494
-554 -60 -13 -144 -16 -407 -16 l-330 0 0 713 c0 393 3 717 7 720 10 11 515 8
643 -3z"/>
</g>
</svg>
