<svg viewBox="0 0 142 6" xmlns="http://www.w3.org/2000/svg" style="fill-rule:evenodd;clip-rule:evenodd;stroke-linejoin:round;stroke-miterlimit:2"><path d="M141.072 3.636c-.71-.094-1.362-.125-2.074-.159-.712-.033-1.362-.125-2.071-.219-1.537-.193-3.012-.444-4.549-.638-2.895-.378-5.851-.76-8.755-.958a181.268 181.268 0 0 0-8.06-.562l-2.077-.098c-2.673-.066-5.343-.192-8.016-.258C99.232.631 92.934.515 86.69.522c-6.125.013-12.25.026-18.319.102-2.975.041-6.01.079-8.985.12-3.277.148-6.549.175-9.764.265-6.731.226-13.398.395-20.129.621-5.837.208-11.623.6-17.418 1.172-3.707.43-7.477.917-11.187 1.407 4.199.501 8.465.823 12.734 1.085 2.788.132 5.58.204 8.312.272 1.783.024 3.568-.013 5.413-.046 1.131-.008 2.204-.078 3.278-.148 2.921-.164 5.899-.266 8.821-.43 3.396-.142 6.736-.347 10.132-.489 3.455-.139 6.97-.275 10.425-.414 3.097-.096 6.253-.189 9.409-.281 3.037-.099 6.131-.134 9.166-.172 3.093-.035 6.128-.073 9.222-.109 3.153-.032 6.241.053 9.391.081 5.707.028 11.406.237 17.164.448 3.204.152 6.354.179 9.564.21 3.15.028 6.3.056 9.394.021 1.249-.002 2.557 0 3.809-.062.596-.033 1.251-.062 1.85-.155.54-.095 1.082-.251 1.619-.286.181-.052.303-.107.481-.098Z" style="fill:#f9fafb;fill-rule:nonzero"/></svg>