<svg width="100%" height="100%" viewBox="0 0 24 24" version="1.1" xmlns="http://www.w3.org/2000/svg" style="fill-rule:evenodd;clip-rule:evenodd;stroke-linejoin:round;stroke-miterlimit:2;"><path d="M22.286,-0l-20.577,-0c-0.943,-0 -1.709,0.777 -1.709,1.73l0,20.54c0,0.953 0.766,1.73 1.709,1.73l20.577,0c0.943,0 1.714,-0.777 1.714,-1.73l0,-20.54c0,-0.953 -0.771,-1.73 -1.714,-1.73Zm-15.027,20.571l-3.563,0l0,-11.453l3.563,-0l-0,11.453Zm-1.784,-13.017c-1.141,-0 -2.062,-0.927 -2.062,-2.063c-0,-1.136 0.921,-2.062 2.062,-2.062c1.136,-0 2.063,0.926 2.063,2.062c-0,1.141 -0.922,2.063 -2.063,2.063Zm15.112,13.017l-3.557,0l0,-5.571c0,-1.329 -0.026,-3.038 -1.848,-3.038c-1.853,0 -2.137,1.447 -2.137,2.942l-0,5.667l-3.557,0l-0,-11.453l3.412,-0l0,1.564l0.048,0c0.477,-0.9 1.639,-1.848 3.37,-1.848c3.6,-0 4.269,2.373 4.269,5.459l0,6.278Z" style="fill:#111827;fill-rule:nonzero;"/></svg>