<svg width="100%" height="100%" viewBox="0 0 142 6" version="1.1" xmlns="http://www.w3.org/2000/svg" style="fill-rule:evenodd;clip-rule:evenodd;stroke-linejoin:round;stroke-miterlimit:2;"><path d="M141.072,3.636c-0.71,-0.094 -1.362,-0.125 -2.074,-0.159c-0.712,-0.033 -1.362,-0.125 -2.071,-0.219c-1.537,-0.193 -3.012,-0.444 -4.549,-0.638c-2.895,-0.378 -5.851,-0.76 -8.755,-0.958c-2.664,-0.246 -5.391,-0.436 -8.06,-0.562c-0.712,-0.033 -1.424,-0.067 -2.077,-0.098c-2.673,-0.066 -5.343,-0.192 -8.016,-0.258c-6.238,-0.113 -12.536,-0.229 -18.78,-0.222c-6.125,0.013 -12.25,0.026 -18.319,0.102c-2.975,0.041 -6.01,0.079 -8.985,0.12c-3.277,0.148 -6.549,0.175 -9.764,0.265c-6.731,0.226 -13.398,0.395 -20.129,0.621c-5.837,0.208 -11.623,0.6 -17.418,1.172c-3.707,0.43 -7.477,0.917 -11.187,1.407c4.199,0.501 8.465,0.823 12.734,1.085c2.788,0.132 5.58,0.204 8.312,0.272c1.783,0.024 3.568,-0.013 5.413,-0.046c1.131,-0.008 2.204,-0.078 3.278,-0.148c2.921,-0.164 5.899,-0.266 8.821,-0.43c3.396,-0.142 6.736,-0.347 10.132,-0.489c3.455,-0.139 6.97,-0.275 10.425,-0.414c3.097,-0.096 6.253,-0.189 9.409,-0.281c3.037,-0.099 6.131,-0.134 9.166,-0.172c3.093,-0.035 6.128,-0.073 9.222,-0.109c3.153,-0.032 6.241,0.053 9.391,0.081c5.707,0.028 11.406,0.237 17.164,0.448c3.204,0.152 6.354,0.179 9.564,0.21c3.15,0.028 6.3,0.056 9.394,0.021c1.249,-0.002 2.557,-0 3.809,-0.062c0.596,-0.033 1.251,-0.062 1.85,-0.155c0.54,-0.095 1.082,-0.251 1.619,-0.286c0.181,-0.052 0.303,-0.107 0.481,-0.098Z" style="fill:#f9fafb;fill-rule:nonzero;"/></svg>