<svg width="89" height="56" viewBox="0 0 89 56" fill="none" xmlns="http://www.w3.org/2000/svg">
<path d="M84.5495 16.4099C85.1828 17.2722 85.6895 17.962 86.1962 18.7381C89.4896 23.653 89.8696 29.8614 87.3996 35.5524C86.1962 38.3117 84.5495 40.4674 82.7127 42.3644C78.4693 46.6757 73.7191 49.5213 68.6523 51.332C52.5651 57.1093 36.3512 57.368 20.074 52.9704C15.7672 51.8494 11.587 50.0386 7.66025 47.1069C5.50684 45.4686 3.54344 43.5716 2.08673 40.8123C-0.383352 36.3285 -0.636694 31.5859 1.20003 26.5848C2.40341 23.2219 4.30347 20.6351 6.45687 18.3069C10.257 14.168 14.4371 11.0638 18.934 8.64946C35.2112 -0.404424 51.9951 -2.12897 69.159 2.44108C73.8458 3.64826 78.2793 5.80395 82.3327 9.4255C83.1561 10.2015 83.9794 10.9776 84.7395 11.9261C86.2595 13.7369 86.1962 14.3405 84.5495 16.4099ZM69.2856 7.01113C69.2856 6.92491 69.2856 6.83868 69.2856 6.66622C68.2723 6.40754 67.3222 6.06263 66.3089 5.80395C52.8184 2.69976 39.518 3.64826 26.4075 9.08059C20.7073 11.4087 15.1972 14.5991 10.3203 19.3417C8.48361 21.1524 6.64688 23.1357 5.19017 25.4638C1.83339 30.8961 2.2134 36.4147 6.3302 40.8123C8.1036 42.7093 10.1937 44.1752 12.2837 45.4686C16.7806 48.1416 21.5307 49.435 26.3442 50.3835C37.8713 52.5392 49.3983 52.3668 60.862 49.6937C67.0056 48.2278 72.9591 45.8135 78.4059 41.4159C80.6227 39.6051 82.7127 37.5356 84.2328 34.6901C86.8295 29.9476 86.5762 24.9464 83.4728 20.8075C82.5227 19.5141 81.446 18.3932 80.306 17.3584C74.9858 12.6159 69.0956 10.6327 62.8254 10.8051C61.4954 10.8051 60.102 10.9776 58.7719 11.0638C57.9486 11.0638 57.2519 10.6327 57.1886 9.4255C57.1252 8.39077 57.6952 7.70095 58.4553 7.61473C59.7853 7.35604 61.1154 6.92491 62.4454 6.83868C64.7255 6.75245 67.0056 6.92491 69.2856 7.01113Z" fill="#F9FAFB"/>
</svg>
