<svg width="100%" height="100%" viewBox="0 0 24 24" version="1.1" xmlns="http://www.w3.org/2000/svg" style="fill-rule:evenodd;clip-rule:evenodd;stroke-linejoin:round;stroke-miterlimit:2;"><path d="M8.027,19.325c0,0.099 -0.111,0.178 -0.251,0.178c-0.16,0.015 -0.271,-0.064 -0.271,-0.178c-0,-0.1 0.111,-0.179 0.251,-0.179c0.146,-0.015 0.271,0.065 0.271,0.179Zm-1.504,-0.224c-0.034,0.1 0.062,0.214 0.208,0.244c0.125,0.049 0.271,-0 0.3,-0.1c0.029,-0.099 -0.063,-0.213 -0.208,-0.258c-0.126,-0.034 -0.267,0.015 -0.3,0.114Zm2.138,-0.084c-0.14,0.035 -0.237,0.129 -0.222,0.243c0.014,0.1 0.14,0.164 0.285,0.129c0.141,-0.034 0.237,-0.129 0.223,-0.228c-0.015,-0.094 -0.145,-0.159 -0.286,-0.144Zm3.184,-19.017c-6.711,-0 -11.845,5.226 -11.845,12.109c-0,5.504 3.377,10.213 8.202,11.871c0.619,0.114 0.837,-0.278 0.837,-0.601c-0,-0.307 -0.015,-2.005 -0.015,-3.047c0,0 -3.387,0.745 -4.098,-1.479c-0,0 -0.552,-1.444 -1.345,-1.816c-0,-0 -1.108,-0.779 0.077,-0.764c0,-0 1.205,0.099 1.868,1.28c1.059,1.916 2.835,1.365 3.527,1.037c0.112,-0.794 0.426,-1.345 0.774,-1.672c-2.704,-0.308 -5.433,-0.71 -5.433,-5.484c-0,-1.365 0.367,-2.05 1.141,-2.923c-0.125,-0.323 -0.537,-1.653 0.126,-3.37c1.012,-0.322 3.339,1.34 3.339,1.34c0.968,-0.278 2.008,-0.422 3.039,-0.422c1.03,0 2.071,0.144 3.038,0.422c0,0 2.328,-1.667 3.339,-1.34c0.663,1.722 0.252,3.047 0.126,3.37c0.774,0.878 1.248,1.563 1.248,2.923c0,4.789 -2.85,5.171 -5.554,5.484c0.445,0.392 0.822,1.136 0.822,2.303c0,1.672 -0.014,3.741 -0.014,4.148c-0,0.323 0.222,0.715 0.837,0.601c4.838,-1.648 8.119,-6.357 8.119,-11.861c-0,-6.883 -5.444,-12.109 -12.155,-12.109Zm-7.142,17.116c-0.063,0.05 -0.048,0.164 0.034,0.258c0.078,0.08 0.189,0.115 0.252,0.05c0.063,-0.05 0.048,-0.164 -0.034,-0.258c-0.078,-0.079 -0.189,-0.114 -0.252,-0.05Zm-0.522,-0.402c-0.034,0.065 0.014,0.144 0.111,0.194c0.077,0.05 0.174,0.035 0.208,-0.035c0.034,-0.064 -0.015,-0.144 -0.111,-0.193c-0.097,-0.03 -0.174,-0.015 -0.208,0.034Zm1.567,1.767c-0.077,0.065 -0.048,0.214 0.063,0.308c0.112,0.114 0.252,0.129 0.315,0.049c0.063,-0.064 0.034,-0.213 -0.063,-0.307c-0.107,-0.114 -0.252,-0.129 -0.315,-0.05Zm-0.551,-0.729c-0.078,0.049 -0.078,0.178 -0,0.292c0.077,0.115 0.208,0.164 0.271,0.115c0.077,-0.065 0.077,-0.194 -0,-0.308c-0.068,-0.114 -0.194,-0.164 -0.271,-0.099Z" style="fill:#111827;fill-rule:nonzero;"/></svg>